#!OML:ASF I:\Actors\actors\Patient Classification 2\Patient 1\Session 1\actor1.ASF
:FULLY-SPECIFIED
:DEGREES
600
root -0.989781 18.1858 5.74121 2.05425 -0.980105 -5.4388
lowerback 8.88959 -2.25383 2.66873
upperback 0.732599 -2.57176 3.69315
thorax -4.17035 -1.29242 2.65977
lowerneck -20.4095 0.64099 -0.950411
upperneck 17.1779 0.968719 0.903978
head 8.71668 0.490571 0.591598
rclavicle -4.57205e-015 1.15295e-014
rhumerus -52.0596 32.5468 -100.074
rradius 111.093
rwrist -13.8004
rhand -9.0966 -34.7192
rfingers 7.12502
rthumb 16.8534 -64.0079
lclavicle -4.57205e-015 1.15295e-014
lhumerus 33.0867 -12.3776 69.353
lradius 82.8812
lwrist 56.9138
lhand -8.65334 -28.696
lfingers 7.12502
lthumb 17.2801 0.555723
rfemur 0 0 0
rtibia 0
rfoot 0 0
rtoes 0
lfemur 15.4748 -3.88377 -10.5874
ltibia -18.8998
lfoot -2.19981 16.0796
ltoes -9.20381
601
root -0.98494 18.1877 5.74213 2.12804 -1.24774 -5.45151
lowerback 9.52658 -2.53106 2.78701
upperback 0.446152 -2.87248 3.87475
thorax -4.81586 -1.44097 2.86745
lowerneck -20.4193 0.992709 -0.836528
upperneck 17.3548 1.47415 0.639317
head 8.77675 0.70518 0.550914
rclavicle -2.33075e-014 3.18055e-015
rhumerus -53.8991 32.2886 -101.271
rradius 110.944
rwrist -13.661
rhand -8.39595 -34.1566
rfingers 7.12502
rthumb 17.5278 -63.3864
lclavicle -2.33075e-014 3.18055e-015
lhumerus 34.9052 -10.8204 68.5151
lradius 80.1307
lwrist 57.4886
lhand -9.1451 -28.8596
lfingers 7.12502
lthumb 16.8068 0.433036
rfemur 0 0 0
rtibia 0
rfoot 0 0
rtoes 0
lfemur 15.4575 -3.79555 -10.5836
ltibia -18.8631
lfoot -2.31098 16.1508
ltoes -8.28108
602
root -0.975557 18.1913 5.74489 2.24981 -1.46232 -5.43008
lowerback 9.48104 -2.82268 2.68227
upperback 0.591303 -3.26747 4.18612
thorax -4.60374 -1.63254 3.29681
lowerneck -20.6298 1.38934 -0.766825
upperneck 17.1673 2.08746 0.227421
head 8.74972 0.952404 0.480959
rclavicle 4.59193e-014 -4.81059e-014
rhumerus -54.4576 32.2213 -101.611
rradius 110.347
rwrist -12.9774
rhand -6.96884 -33.5662
rfingers 7.12502
rthumb 18.9008 -62.6679
lclavicle 4.59193e-014 -4.81059e-014
lhumerus 37.1132 -8.93693 67.7642
lradius 77.0011
lwrist 58.2432
lhand -9.86848 -28.1219
lfingers 7.12502
lthumb 16.1103 1.22844
rfemur 0 0 0
rtibia 0
rfoot 0 0
rtoes 0
lfemur 15.3801 -3.89671 -10.6576
ltibia -18.8252
lfoot -2.37822 16.3919
ltoes -7.85761
603
root -0.963179 18.1959 5.74828 2.37389 -1.63346 -5.39293
lowerback 9.52678 -3.0693 2.81104
upperback 0.671722 -3.57457 4.37951
thorax -4.53012 -1.78602 3.4679
lowerneck -20.908 1.71539 -0.604953
upperneck 17.095 2.58362 -0.22
head 8.77952 1.14563 0.370476
rclavicle -2.38542e-014 4.92986e-014
rhumerus -54.7318 31.6863 -101.839
rradius 109.562
rwrist -11.7462
rhand -4.13436 -33.941
rfingers 7.12502
rthumb 21.6249 -62.7534
lclavicle -2.38542e-014 4.92986e-014
lhumerus 39.2429 -7.49468 66.8795
lradius 73.5707
lwrist 59.0418
lhand -10.7418 -27.2928
lfingers 7.12502
lthumb 15.2692 2.12364
rfemur 0 0 0
rtibia 0
rfoot 0 0
rtoes 0
lfemur 15.2792 -4.09703 -10.7673
ltibia -18.7756
lfoot -2.4894 16.6942
ltoes -7.66657
604
root -0.948478 18.2052 5.74606 2.56224 -1.8429 -5.38296
lowerback 9.65024 -3.25868 3.04257
upperback 0.686448 -3.78808 4.52548
thorax -4.58127 -1.89474 3.52855
lowerneck -21.3021 2.00069 -0.382256
upperneck 17.2125 3.00359 -0.646837
head 8.8987 1.30627 0.250359
rclavicle 5.87409e-014 -2.62396e-014
rhumerus -54.8708 31.0639 -102.191
rradius 108.774
rwrist -12.3876
rhand -2.70598 -35.2424
rfingers 7.12502
rthumb 22.9961 -63.8906
lclavicle 5.87409e-014 -2.62396e-014
lhumerus 41.1694 -6.35906 66.0041
lradius 70.07
lwrist 59.3386
lhand -11.2977 -27.2219
lfingers 7.12502
lthumb 14.7337 2.23447
rfemur 0 0 0
rtibia 0
rfoot 0 0
rtoes 0
lfemur 15.0826 -4.2977 -10.8536
ltibia -18.7153
lfoot -2.67799 17.0577
ltoes -7.15276
